<svg width="44" height="47" viewBox="0 0 44 47" fill="none" xmlns="http://www.w3.org/2000/svg">
<g filter="url(#filter0_d_339_2985)">
<path d="M37.645 29.75H36V17.5C36 9.76801 29.732 3.5 22 3.5C14.268 3.5 8 9.76801 8 17.5V29.75H6.4425C5.47601 29.75 4.6925 30.5335 4.6925 31.5C4.6925 32.4665 5.47601 33.25 6.4425 33.25H37.645C38.6115 33.25 39.395 32.4665 39.395 31.5C39.395 30.5335 38.6115 29.75 37.645 29.75Z" fill="#049370"/>
<path d="M22.0001 38.5C24.2195 38.4938 26.1953 37.0925 26.9351 35H17.0651C17.8049 37.0925 19.7806 38.4938 22.0001 38.5Z" fill="#049370"/>
</g>
<defs>
<filter id="filter0_d_339_2985" x="-3" y="0" width="50" height="50" filterUnits="userSpaceOnUse" color-interpolation-filters="sRGB">
<feFlood flood-opacity="0" result="BackgroundImageFix"/>
<feColorMatrix in="SourceAlpha" type="matrix" values="0 0 0 0 0 0 0 0 0 0 0 0 0 0 0 0 0 0 127 0" result="hardAlpha"/>
<feOffset dy="4"/>
<feGaussianBlur stdDeviation="2"/>
<feComposite in2="hardAlpha" operator="out"/>
<feColorMatrix type="matrix" values="0 0 0 0 0 0 0 0 0 0 0 0 0 0 0 0 0 0 0.25 0"/>
<feBlend mode="normal" in2="BackgroundImageFix" result="effect1_dropShadow_339_2985"/>
<feBlend mode="normal" in="SourceGraphic" in2="effect1_dropShadow_339_2985" result="shape"/>
</filter>
</defs>
</svg>
