<svg width="50" height="50" viewBox="0 0 50 50" fill="none" xmlns="http://www.w3.org/2000/svg">
<circle cx="25" cy="25" r="24.5" fill="white" stroke="#049370"/>
<path d="M11.445 31.5558C12.1047 29.9632 12.4346 29.1669 12.8612 28.4991C14.2156 26.3786 16.3959 24.9219 18.8732 24.4822C19.6535 24.3437 20.5154 24.3437 22.2393 24.3437H26.7451C28.4689 24.3437 29.3308 24.3437 30.1111 24.4822C32.5885 24.9219 34.7687 26.3786 36.1232 28.4991C36.5497 29.1669 36.8796 29.9632 37.5394 31.5558V31.5558C38.297 33.3844 38.6757 34.2986 38.7493 35.0322C38.9881 37.4123 37.5076 39.6281 35.2174 40.3185C34.5115 40.5312 33.5219 40.5312 31.5426 40.5312H17.4418C15.4625 40.5312 14.4729 40.5312 13.767 40.3185C11.4768 39.6281 9.9963 37.4123 10.2351 35.0322C10.3086 34.2986 10.6874 33.3844 11.445 31.5558V31.5558Z" fill="#049370"/>
<path d="M18.7185 16.25C18.7185 13.0571 21.3068 10.4688 24.4997 10.4688C27.6926 10.4688 30.281 13.0571 30.281 16.25C30.281 19.4429 27.6926 22.0312 24.4997 22.0312C21.3068 22.0312 18.7185 19.4429 18.7185 16.25Z" fill="#049370"/>
</svg>
