<svg width="34" height="36" viewBox="0 0 34 36" fill="none" xmlns="http://www.w3.org/2000/svg">
<g filter="url(#filter0_d_164_10966)">
<path fill-rule="evenodd" clip-rule="evenodd" d="M8.25 2.50519H25.75C27.8211 2.50519 29.5 4.1876 29.5 6.26296V23.7992C29.5 25.8746 27.8211 27.557 25.75 27.557H8.25C6.17893 27.557 4.5 25.8746 4.5 23.7992V6.26296C4.5 4.1876 6.17893 2.50519 8.25 2.50519ZM18.25 16.2837H23.25C23.9404 16.2837 24.5 15.7229 24.5 15.0311C24.5 14.3393 23.9404 13.7785 23.25 13.7785H18.25V8.76814C18.25 8.07635 17.6904 7.51555 17 7.51555C16.3096 7.51555 15.75 8.07635 15.75 8.76814V13.7785H10.75C10.0596 13.7785 9.5 14.3393 9.5 15.0311C9.5 15.7229 10.0596 16.2837 10.75 16.2837H15.75V21.294C15.75 21.9858 16.3096 22.5466 17 22.5466C17.6904 22.5466 18.25 21.9858 18.25 21.294V16.2837Z" fill="white"/>
</g>
<defs>
<filter id="filter0_d_164_10966" x="0.5" y="2.50519" width="33" height="33.0518" filterUnits="userSpaceOnUse" color-interpolation-filters="sRGB">
<feFlood flood-opacity="0" result="BackgroundImageFix"/>
<feColorMatrix in="SourceAlpha" type="matrix" values="0 0 0 0 0 0 0 0 0 0 0 0 0 0 0 0 0 0 127 0" result="hardAlpha"/>
<feOffset dy="4"/>
<feGaussianBlur stdDeviation="2"/>
<feComposite in2="hardAlpha" operator="out"/>
<feColorMatrix type="matrix" values="0 0 0 0 0 0 0 0 0 0 0 0 0 0 0 0 0 0 0.25 0"/>
<feBlend mode="normal" in2="BackgroundImageFix" result="effect1_dropShadow_164_10966"/>
<feBlend mode="normal" in="SourceGraphic" in2="effect1_dropShadow_164_10966" result="shape"/>
</filter>
</defs>
</svg>
