<svg width="30" height="30" viewBox="0 0 32 33" fill="none" xmlns="http://www.w3.org/2000/svg">
<g filter="url(#filter0_d_204_232)">
<path fill-rule="evenodd" clip-rule="evenodd" d="M24.1663 0.966148H7.83301C5.90001 0.966148 4.33301 2.5364 4.33301 4.4734V20.8406C4.33301 22.7776 5.90001 24.3478 7.83301 24.3478H24.1663C26.0993 24.3478 27.6663 22.7776 27.6663 20.8406V4.4734C27.6663 2.5364 26.0993 0.966148 24.1663 0.966148ZM11.2393 18.9467C11.1838 19.0902 11.1005 19.2213 10.9943 19.3325C10.8809 19.4357 10.7507 19.5188 10.6093 19.578C10.469 19.6379 10.3184 19.6697 10.166 19.6715C9.85707 19.6672 9.5612 19.5461 9.33763 19.3325C9.23141 19.2213 9.14815 19.0902 9.09263 18.9467C8.96782 18.6637 8.96782 18.3411 9.09263 18.0582C9.14815 17.9147 9.23141 17.7835 9.33763 17.6724C9.67312 17.3406 10.1748 17.2438 10.6093 17.4269C10.7507 17.4861 10.8809 17.5691 10.9943 17.6724C11.1005 17.7835 11.1838 17.9147 11.2393 18.0582C11.3641 18.3411 11.3641 18.6637 11.2393 18.9467ZM11.2634 13.1012C11.297 13.035 11.3206 12.9641 11.3334 12.8908C11.3391 12.813 11.3391 12.7348 11.3334 12.657C11.3291 12.3475 11.2082 12.051 10.995 11.8269C10.8816 11.7237 10.7514 11.6406 10.61 11.5814C10.1756 11.3984 9.67384 11.4952 9.33835 11.8269C9.23032 11.9367 9.1468 12.0682 9.09335 12.2127C9.03357 12.3533 9.00186 12.5042 9.00002 12.657C8.99823 12.9677 9.11997 13.2664 9.33835 13.487C9.56193 13.7007 9.85779 13.8218 10.1667 13.8261C10.327 13.8274 10.4859 13.7955 10.6334 13.7326C10.7747 13.6733 10.905 13.5903 11.0184 13.487L11.1584 13.3117C11.2025 13.2465 11.2378 13.1757 11.2634 13.1012ZM10.995 7.64162C10.8816 7.74489 10.7514 7.82793 10.61 7.88713C10.4716 7.95258 10.3197 7.98461 10.1667 7.98066C9.85779 7.97635 9.56193 7.85526 9.33835 7.64162C9.11997 7.421 8.99823 7.12232 9.00002 6.81157C9.00186 6.6588 9.03357 6.50787 9.09335 6.36732C9.15243 6.22565 9.2353 6.09516 9.33835 5.98152C9.67384 5.6498 10.1756 5.55294 10.61 5.73602C10.7514 5.79522 10.8816 5.87826 10.995 5.98152C11.0981 6.09516 11.1809 6.22565 11.24 6.36732C11.2998 6.50787 11.3315 6.6588 11.3334 6.81157C11.3291 7.12111 11.2082 7.41759 10.995 7.64162ZM14.8327 19.6715H21.8327C22.477 19.6715 22.9993 19.1481 22.9993 18.5024C22.9993 17.8568 22.477 17.3333 21.8327 17.3333H14.8327C14.1883 17.3333 13.666 17.8568 13.666 18.5024C13.666 19.1481 14.1883 19.6715 14.8327 19.6715ZM21.8327 13.8261H14.8327C14.1883 13.8261 13.666 13.3027 13.666 12.657C13.666 12.0113 14.1883 11.4879 14.8327 11.4879H21.8327C22.477 11.4879 22.9993 12.0113 22.9993 12.657C22.9993 13.3027 22.477 13.8261 21.8327 13.8261ZM14.8327 7.98066H21.8327C22.477 7.98066 22.9993 7.45724 22.9993 6.81157C22.9993 6.1659 22.477 5.64249 21.8327 5.64249H14.8327C14.1883 5.64249 13.666 6.1659 13.666 6.81157C13.666 7.45724 14.1883 7.98066 14.8327 7.98066Z" fill="white"/>
</g>
<defs>
<filter id="filter0_d_204_232" x="0.333008" y="0.966148" width="31.333" height="31.3817" filterUnits="userSpaceOnUse" color-interpolation-filters="sRGB">
<feFlood flood-opacity="0" result="BackgroundImageFix"/>
<feColorMatrix in="SourceAlpha" type="matrix" values="0 0 0 0 0 0 0 0 0 0 0 0 0 0 0 0 0 0 127 0" result="hardAlpha"/>
<feOffset dy="4"/>
<feGaussianBlur stdDeviation="2"/>
<feComposite in2="hardAlpha" operator="out"/>
<feColorMatrix type="matrix" values="0 0 0 0 0 0 0 0 0 0 0 0 0 0 0 0 0 0 0.25 0"/>
<feBlend mode="normal" in2="BackgroundImageFix" result="effect1_dropShadow_204_232"/>
<feBlend mode="normal" in="SourceGraphic" in2="effect1_dropShadow_204_232" result="shape"/>
</filter>
</defs>
</svg>
