<svg width="20" height="20" viewBox="0 0 20 20" fill="none" xmlns="http://www.w3.org/2000/svg">
<g filter="url(#filter0_d_419_2612)">
<circle cx="10.0002" cy="6.99992" r="2.91667" fill="#B3F9D7"/>
<path fill-rule="evenodd" clip-rule="evenodd" d="M10.0002 2.47913C12.1994 2.47913 14.2469 3.98413 15.7635 6.71413C15.8677 6.89461 15.8677 7.11698 15.7635 7.29746C14.2469 10.0275 12.1994 11.5325 10.0002 11.5325C7.80104 11.5325 5.75937 10.0275 4.2427 7.29746C4.1385 7.11698 4.1385 6.89461 4.2427 6.71413C5.75937 3.98413 7.80104 2.47913 10.0002 2.47913ZM5.91687 6.99996C5.91687 9.25512 7.74504 11.0833 10.0002 11.0833C12.2554 11.0833 14.0835 9.25512 14.0835 6.99996C14.0835 4.7448 12.2554 2.91663 10.0002 2.91663C7.74504 2.91663 5.91687 4.7448 5.91687 6.99996Z" fill="#B3F9D7"/>
</g>
<defs>
<filter id="filter0_d_419_2612" x="-1" y="0" width="22" height="22" filterUnits="userSpaceOnUse" color-interpolation-filters="sRGB">
<feFlood flood-opacity="0" result="BackgroundImageFix"/>
<feColorMatrix in="SourceAlpha" type="matrix" values="0 0 0 0 0 0 0 0 0 0 0 0 0 0 0 0 0 0 127 0" result="hardAlpha"/>
<feOffset dy="4"/>
<feGaussianBlur stdDeviation="2"/>
<feComposite in2="hardAlpha" operator="out"/>
<feColorMatrix type="matrix" values="0 0 0 0 0 0 0 0 0 0 0 0 0 0 0 0 0 0 0.25 0"/>
<feBlend mode="normal" in2="BackgroundImageFix" result="effect1_dropShadow_419_2612"/>
<feBlend mode="normal" in="SourceGraphic" in2="effect1_dropShadow_419_2612" result="shape"/>
</filter>
</defs>
</svg>
