<svg width="14" height="14" viewBox="0 0 14 14" fill="none" xmlns="http://www.w3.org/2000/svg">
<g filter="url(#filter0_i_419_2636)">
<path fill-rule="evenodd" clip-rule="evenodd" d="M1.6792 7.03793C1.6792 4.04967 4.10167 1.6272 7.08993 1.6272C8.52495 1.6272 9.90119 2.19726 10.9159 3.21196C11.9306 4.22667 12.5007 5.60292 12.5007 7.03793C12.5007 10.0262 10.0782 12.4487 7.08993 12.4487C4.10167 12.4487 1.6792 10.0262 1.6792 7.03793ZM9.25423 7.04107C9.3985 7.04107 9.53679 6.98345 9.63839 6.88102C9.74082 6.77943 9.79844 6.64113 9.79844 6.49686C9.79844 6.35259 9.74082 6.21429 9.63839 6.1127L7.4741 3.9484C7.42264 3.89914 7.36196 3.86053 7.29554 3.83478C7.16381 3.78066 7.01606 3.78066 6.88433 3.83478C6.81791 3.86053 6.75723 3.89914 6.70577 3.9484L4.54148 6.1127C4.40423 6.24994 4.35063 6.44999 4.40086 6.63747C4.4511 6.82496 4.59754 6.9714 4.78503 7.02163C4.97251 7.07187 5.17255 7.01827 5.3098 6.88102L6.54886 5.63655V9.7433C6.54886 10.0421 6.79111 10.2844 7.08993 10.2844C7.38876 10.2844 7.63101 10.0421 7.63101 9.7433V5.63655L8.87007 6.88102C8.97166 6.98345 9.10996 7.04107 9.25423 7.04107Z" fill="#00FC19"/>
</g>
<defs>
<filter id="filter0_i_419_2636" x="0.597168" y="0.545044" width="12.9858" height="16.9857" filterUnits="userSpaceOnUse" color-interpolation-filters="sRGB">
<feFlood flood-opacity="0" result="BackgroundImageFix"/>
<feBlend mode="normal" in="SourceGraphic" in2="BackgroundImageFix" result="shape"/>
<feColorMatrix in="SourceAlpha" type="matrix" values="0 0 0 0 0 0 0 0 0 0 0 0 0 0 0 0 0 0 127 0" result="hardAlpha"/>
<feOffset dy="4"/>
<feGaussianBlur stdDeviation="2"/>
<feComposite in2="hardAlpha" operator="arithmetic" k2="-1" k3="1"/>
<feColorMatrix type="matrix" values="0 0 0 0 0 0 0 0 0 0 0 0 0 0 0 0 0 0 0.25 0"/>
<feBlend mode="normal" in2="shape" result="effect1_innerShadow_419_2636"/>
</filter>
</defs>
</svg>
