<svg width="36" height="39" viewBox="0 0 36 39" fill="none" xmlns="http://www.w3.org/2000/svg">
<g filter="url(#filter0_d_239_262)">
<path d="M24.667 19.5986H18.0003C16.5276 19.5986 15.3337 18.4022 15.3337 16.9264C15.3337 15.4506 16.5276 14.2542 18.0003 14.2542H24.667C24.67 13.5467 24.9529 12.8692 25.4537 12.3703C25.6139 12.2053 25.7982 12.0656 26.0003 11.9561V7.57374C26.0003 5.36002 24.2095 3.56544 22.0003 3.56544H8.66699C6.45785 3.56544 4.66699 5.36002 4.66699 7.57374V26.2791C4.66699 28.4928 6.45785 30.2874 8.66699 30.2874H22.0003C24.2095 30.2874 26.0003 28.4928 26.0003 26.2791V21.8967C25.799 21.786 25.6148 21.6465 25.4537 21.4825C24.9529 20.9837 24.67 20.3062 24.667 19.5986V19.5986Z" fill="white"/>
<path d="M30.947 15.9778L28.2803 13.3056C27.7575 12.7817 26.9098 12.7817 26.387 13.3056C25.8642 13.8295 25.8642 14.6789 26.387 15.2029L26.787 15.5903H18.0003C17.2639 15.5903 16.667 16.1885 16.667 16.9264C16.667 17.6643 17.2639 18.2625 18.0003 18.2625H26.787L26.387 18.65C26.1346 18.9009 25.9926 19.2424 25.9926 19.5986C25.9926 19.9549 26.1346 20.2964 26.387 20.5472C26.6373 20.8002 26.9781 20.9425 27.3337 20.9425C27.6892 20.9425 28.03 20.8002 28.2803 20.5472L30.947 17.875C31.1994 17.6242 31.3414 17.2827 31.3414 16.9264C31.3414 16.5702 31.1994 16.2287 30.947 15.9778Z" fill="white"/>
</g>
<defs>
<filter id="filter0_d_239_262" x="0.666992" y="3.56544" width="34.6748" height="34.7219" filterUnits="userSpaceOnUse" color-interpolation-filters="sRGB">
<feFlood flood-opacity="0" result="BackgroundImageFix"/>
<feColorMatrix in="SourceAlpha" type="matrix" values="0 0 0 0 0 0 0 0 0 0 0 0 0 0 0 0 0 0 127 0" result="hardAlpha"/>
<feOffset dy="4"/>
<feGaussianBlur stdDeviation="2"/>
<feComposite in2="hardAlpha" operator="out"/>
<feColorMatrix type="matrix" values="0 0 0 0 0 0 0 0 0 0 0 0 0 0 0 0 0 0 0.25 0"/>
<feBlend mode="normal" in2="BackgroundImageFix" result="effect1_dropShadow_239_262"/>
<feBlend mode="normal" in="SourceGraphic" in2="effect1_dropShadow_239_262" result="shape"/>
</filter>
</defs>
</svg>
