<svg width="30" height="30" viewBox="0 0 33 36" fill="none" xmlns="http://www.w3.org/2000/svg">
<g filter="url(#filter0_d_563_1116)">
<path d="M27.7393 20.875H26.5542V11.1333C26.5542 4.98456 22.0387 0 16.4685 0C10.8983 0 6.38275 4.98456 6.38275 11.1333V20.875H5.26072C4.56444 20.875 4 21.4981 4 22.2667C4 23.0353 4.56444 23.6583 5.26072 23.6583H27.7393C28.4356 23.6583 29 23.0353 29 22.2667C29 21.4981 28.4356 20.875 27.7393 20.875Z" fill="#0085FF"/>
<path d="M16.4683 27.8333C18.0672 27.8284 19.4906 26.7141 20.0235 25.05H12.9131C13.4461 26.7141 14.8694 27.8284 16.4683 27.8333Z" fill="#0085FF"/>
</g>
<defs>
<filter id="filter0_d_563_1116" x="0" y="0" width="33" height="35.8333" filterUnits="userSpaceOnUse" color-interpolation-filters="sRGB">
<feFlood flood-opacity="0" result="BackgroundImageFix"/>
<feColorMatrix in="SourceAlpha" type="matrix" values="0 0 0 0 0 0 0 0 0 0 0 0 0 0 0 0 0 0 127 0" result="hardAlpha"/>
<feOffset dy="4"/>
<feGaussianBlur stdDeviation="2"/>
<feComposite in2="hardAlpha" operator="out"/>
<feColorMatrix type="matrix" values="0 0 0 0 0 0 0 0 0 0 0 0 0 0 0 0 0 0 0.25 0"/>
<feBlend mode="normal" in2="BackgroundImageFix" result="effect1_dropShadow_563_1116"/>
<feBlend mode="normal" in="SourceGraphic" in2="effect1_dropShadow_563_1116" result="shape"/>
</filter>
</defs>
</svg>
