<svg width="26" height="31" viewBox="0 0 26 31" fill="none" xmlns="http://www.w3.org/2000/svg">
<path d="M10.3226 0V2.86539C10.3226 5.67768 10.3226 7.08383 11.0388 8.06958C11.2701 8.38794 11.55 8.6679 11.8684 8.8992C12.8541 9.61539 14.2603 9.61539 17.0726 9.61539L20 9.61539V18.25C20 21.0623 20 22.4684 19.2838 23.4542C19.0525 23.7725 18.7725 24.0525 18.4542 24.2838C17.4684 25 16.0623 25 13.25 25H6.75C3.9377 25 2.53155 25 1.54581 24.2838C1.22745 24.0525 0.947485 23.7725 0.716186 23.4542C0 22.4684 0 21.0623 0 18.25V6.75C0 3.9377 0 2.53155 0.716186 1.54581C0.947485 1.22745 1.22745 0.947485 1.54581 0.716186C2.53155 0 3.9377 0 6.75 0H10.3226Z" fill="white"/>
<path d="M12.2581 0V3.64231C12.2581 5.32969 12.2581 6.17338 12.6878 6.76483C12.8266 6.95584 12.9945 7.12382 13.1855 7.2626C13.777 7.69231 14.6207 7.69231 16.3081 7.69231L20 7.69231L12.2581 0Z" fill="white"/>
<path fill-rule="evenodd" clip-rule="evenodd" d="M23.3493 20.0294C23.3419 24.6318 19.605 28.3568 15.0026 28.3494C12.7925 28.3458 10.6743 27.4644 9.11399 25.8991C7.5537 24.3338 6.67914 22.2128 6.68269 20.0026C6.69009 15.4003 10.427 11.6753 15.0294 11.6827C19.6318 11.6901 23.3567 15.4271 23.3493 20.0294ZM11.6827 20.0059C11.4605 20.0055 11.2474 20.0939 11.0906 20.2514C10.9326 20.4076 10.8435 20.6205 10.8432 20.8427C10.8428 21.0649 10.9312 21.278 11.0887 21.4347L14.4167 24.7734C14.4958 24.8494 14.5892 24.909 14.6914 24.9489C14.8942 25.0325 15.1217 25.0329 15.3247 24.9499C15.4271 24.9104 15.5207 24.8511 15.6 24.7753L18.9387 21.4474C19.1504 21.2363 19.2335 20.9283 19.1566 20.6395C19.0797 20.3506 18.8545 20.1247 18.5659 20.0469C18.2772 19.969 17.969 20.0511 17.7573 20.2621L15.8459 22.1757L15.856 15.8507C15.8568 15.3905 15.4843 15.0168 15.024 15.0161C14.5638 15.0153 14.1901 15.3878 14.1894 15.848L14.1792 22.173L12.274 20.2533C12.1177 20.0953 11.9049 20.0062 11.6827 20.0059Z" fill="#0085FF"/>
</svg>
