<svg width="24" height="30" viewBox="0 0 24 30" fill="none" xmlns="http://www.w3.org/2000/svg">
<path d="M14.3226 0V2.86539C14.3226 5.67768 14.3226 7.08383 15.0388 8.06958C15.2701 8.38794 15.55 8.6679 15.8684 8.8992C16.8541 9.61539 18.2603 9.61539 21.0726 9.61539L24 9.61538V18.25C24 21.0623 24 22.4684 23.2838 23.4542C23.0525 23.7726 22.7725 24.0525 22.4542 24.2838C21.4684 25 20.0623 25 17.25 25H10.75C7.9377 25 6.53155 25 5.54581 24.2838C5.22745 24.0525 4.94748 23.7726 4.71619 23.4542C4 22.4684 4 21.0623 4 18.25V6.75C4 3.9377 4 2.53155 4.71619 1.54581C4.94748 1.22745 5.22745 0.947485 5.54581 0.716186C6.53155 0 7.9377 0 10.75 0H14.3226Z" fill="white"/>
<path d="M16.2581 0V3.64231C16.2581 5.32969 16.2581 6.17338 16.6878 6.76483C16.8266 6.95584 16.9945 7.12382 17.1855 7.2626C17.777 7.69231 18.6207 7.69231 20.3081 7.69231L24 7.69231L16.2581 0Z" fill="white"/>
<path fill-rule="evenodd" clip-rule="evenodd" d="M10.0847 10.713C14.687 10.7343 18.4007 14.4825 18.3794 19.0848C18.3691 21.2949 17.4813 23.4105 15.9113 24.966C14.3413 26.5215 12.2176 27.3897 10.0075 27.3795C5.40519 27.3581 1.69155 23.6099 1.71287 19.0076C1.7342 14.4053 5.4824 10.6916 10.0847 10.713ZM10.0258 22.3795C10.0248 22.6017 10.1126 22.8151 10.2696 22.9723C10.4253 23.1308 10.6379 23.2205 10.8601 23.2215C11.0823 23.2226 11.2957 23.1348 11.4529 22.9778L14.8017 19.6599C14.8779 19.581 14.9378 19.4878 14.9779 19.3857C15.0622 19.1832 15.0633 18.9557 14.9809 18.7524C14.9417 18.6499 14.8826 18.5562 14.8071 18.4766L11.4893 15.1279C11.2789 14.9155 10.9712 14.8315 10.6821 14.9075C10.393 14.9836 10.1664 15.2081 10.0877 15.4965C10.009 15.7849 10.0901 16.0933 10.3005 16.3057L12.2083 18.2229L5.88336 18.1936C5.42312 18.1914 5.0483 18.5628 5.04617 19.023C5.04404 19.4833 5.4154 19.8581 5.87563 19.8602L12.2006 19.8895L10.2751 21.789C10.1166 21.9447 10.0269 22.1573 10.0258 22.3795Z" fill="#0085FF"/>
</svg>
