<svg width="33" height="36" viewBox="0 0 47 43" fill="none" xmlns="http://www.w3.org/2000/svg">
<path d="M46.5 21.5C46.5 33.057 36.2453 42.5 23.5 42.5C10.7547 42.5 0.5 33.057 0.5 21.5C0.5 9.94295 10.7547 0.5 23.5 0.5C36.2453 0.5 46.5 9.94295 46.5 21.5Z" fill="white" stroke="#484848"/>
<circle cx="23.5" cy="14.5" r="7.5" fill="#0085FF"/>
<path d="M9.06856 36.2375C9.1631 32.86 10.6427 29.649 13.1967 27.2785C15.7508 24.908 19.1807 23.5623 22.7665 23.5239C26.3522 23.4855 29.8151 24.7574 32.4281 27.0726C35.0412 29.3878 36.6012 32.5662 36.7807 35.9408L22.9309 36.5884L9.06856 36.2375Z" fill="#0085FF"/>
</svg>
