<svg width="37" height="39" viewBox="0 0 37 39" fill="none" xmlns="http://www.w3.org/2000/svg">
<g filter="url(#filter0_d_0_1)">
<circle cx="14" cy="7" r="5" fill="white"/>
<path d="M15 12H13C8.02944 12 4 16.0294 4 21C4 21.5523 4.44772 22 5 22H23C23.5523 22 24 21.5523 24 21C24 16.0294 19.9706 12 15 12Z" fill="white"/>
</g>
<g filter="url(#filter1_d_0_1)">
<path fill-rule="evenodd" clip-rule="evenodd" d="M19.75 15.5H30.25C31.4926 15.5 32.5 16.5074 32.5 17.75V28.25C32.5 29.4926 31.4926 30.5 30.25 30.5H19.75C18.5074 30.5 17.5 29.4926 17.5 28.25V17.75C17.5 16.5074 18.5074 15.5 19.75 15.5ZM25.75 23.75H28.75C29.1642 23.75 29.5 23.4142 29.5 23C29.5 22.5858 29.1642 22.25 28.75 22.25H25.75V19.25C25.75 18.8358 25.4142 18.5 25 18.5C24.5858 18.5 24.25 18.8358 24.25 19.25V22.25H21.25C20.8358 22.25 20.5 22.5858 20.5 23C20.5 23.4142 20.8358 23.75 21.25 23.75H24.25V26.75C24.25 27.1642 24.5858 27.5 25 27.5C25.4142 27.5 25.75 27.1642 25.75 26.75V23.75Z" fill="white"/>
</g>
<defs>
<filter id="filter0_d_0_1" x="-2" y="0" width="32" height="32" filterUnits="userSpaceOnUse" color-interpolation-filters="sRGB">
<feFlood flood-opacity="0" result="BackgroundImageFix"/>
<feColorMatrix in="SourceAlpha" type="matrix" values="0 0 0 0 0 0 0 0 0 0 0 0 0 0 0 0 0 0 127 0" result="hardAlpha"/>
<feOffset dy="4"/>
<feGaussianBlur stdDeviation="2"/>
<feComposite in2="hardAlpha" operator="out"/>
<feColorMatrix type="matrix" values="0 0 0 0 0 0 0 0 0 0 0 0 0 0 0 0 0 0 0.25 0"/>
<feBlend mode="normal" in2="BackgroundImageFix" result="effect1_dropShadow_0_1"/>
<feBlend mode="normal" in="SourceGraphic" in2="effect1_dropShadow_0_1" result="shape"/>
</filter>
<filter id="filter1_d_0_1" x="12" y="14" width="26" height="26" filterUnits="userSpaceOnUse" color-interpolation-filters="sRGB">
<feFlood flood-opacity="0" result="BackgroundImageFix"/>
<feColorMatrix in="SourceAlpha" type="matrix" values="0 0 0 0 0 0 0 0 0 0 0 0 0 0 0 0 0 0 127 0" result="hardAlpha"/>
<feOffset dy="4"/>
<feGaussianBlur stdDeviation="2"/>
<feComposite in2="hardAlpha" operator="out"/>
<feColorMatrix type="matrix" values="0 0 0 0 0 0 0 0 0 0 0 0 0 0 0 0 0 0 0.25 0"/>
<feBlend mode="normal" in2="BackgroundImageFix" result="effect1_dropShadow_0_1"/>
<feBlend mode="normal" in="SourceGraphic" in2="effect1_dropShadow_0_1" result="shape"/>
</filter>
</defs>
</svg>
