<svg width="32" height="34" viewBox="0 0 32 34" fill="none" xmlns="http://www.w3.org/2000/svg">
<g filter="url(#filter0_d_346_2224)">
<path fill-rule="evenodd" clip-rule="evenodd" d="M25.3335 10.1268L26.8618 10.6285C27.337 10.789 27.6565 11.2353 27.6552 11.7368V16.2052C27.6809 16.7312 27.3511 17.2092 26.8502 17.3718L25.3335 17.8735L26.1852 19.2852C26.4151 19.7342 26.3304 20.2802 25.9752 20.6385L22.7668 23.8468C22.4086 24.2021 21.8626 24.2868 21.4135 24.0568L19.9902 23.3335L19.4885 24.8502C19.3259 25.3511 18.8478 25.6809 18.3218 25.6552H13.7952C13.2692 25.6809 12.7911 25.3511 12.6285 24.8502L12.1268 23.3335L10.7035 24.0685C10.2544 24.2985 9.7084 24.2138 9.35016 23.8585L6.15349 20.7668C5.79822 20.4086 5.7135 19.8626 5.94349 19.4135L6.66682 17.9902L5.15016 17.4885C4.64926 17.3259 4.31942 16.8478 4.34516 16.3218V11.7952C4.31942 11.2692 4.64926 10.7911 5.15016 10.6285L6.66682 10.1268L5.93182 8.70349C5.70183 8.25443 5.78656 7.7084 6.14182 7.35016L9.35016 4.14182C9.7084 3.78656 10.2544 3.70183 10.7035 3.93182L12.1268 4.66682L12.5702 3.15016C12.7328 2.64926 13.2108 2.31942 13.7368 2.34516H18.2052C18.7312 2.31942 19.2092 2.64926 19.3718 3.15016L19.8735 4.66682L21.2968 3.93182C21.7459 3.70183 22.2919 3.78656 22.6502 4.14182L25.8468 7.35016C26.2021 7.7084 26.2868 8.25443 26.0568 8.70349L25.3335 10.1268ZM10.1668 14.0002C10.1668 17.2218 12.7785 19.8335 16.0002 19.8335C19.2218 19.8335 21.8335 17.2218 21.8335 14.0002C21.8335 10.7785 19.2218 8.16682 16.0002 8.16682C12.7785 8.16682 10.1668 10.7785 10.1668 14.0002Z" fill="white"/>
<circle cx="16" cy="14" r="3.5" fill="white"/>
</g>
<defs>
<filter id="filter0_d_346_2224" x="-2" y="0" width="36" height="36" filterUnits="userSpaceOnUse" color-interpolation-filters="sRGB">
<feFlood flood-opacity="0" result="BackgroundImageFix"/>
<feColorMatrix in="SourceAlpha" type="matrix" values="0 0 0 0 0 0 0 0 0 0 0 0 0 0 0 0 0 0 127 0" result="hardAlpha"/>
<feOffset dy="4"/>
<feGaussianBlur stdDeviation="2"/>
<feComposite in2="hardAlpha" operator="out"/>
<feColorMatrix type="matrix" values="0 0 0 0 0 0 0 0 0 0 0 0 0 0 0 0 0 0 0.25 0"/>
<feBlend mode="normal" in2="BackgroundImageFix" result="effect1_dropShadow_346_2224"/>
<feBlend mode="normal" in="SourceGraphic" in2="effect1_dropShadow_346_2224" result="shape"/>
</filter>
</defs>
</svg>
