<svg width="32" height="35" viewBox="0 0 32 35" fill="none" xmlns="http://www.w3.org/2000/svg">
<g filter="url(#filter0_d_164_10961)">
<path fill-rule="evenodd" clip-rule="evenodd" d="M24.1663 2.96615H7.83301C5.90001 2.96615 4.33301 4.5364 4.33301 6.4734V22.8406C4.33301 24.7776 5.90001 26.3478 7.83301 26.3478H24.1663C26.0993 26.3478 27.6663 24.7776 27.6663 22.8406V6.4734C27.6663 4.5364 26.0993 2.96615 24.1663 2.96615ZM11.2397 20.9467C11.1841 21.0902 11.1009 21.2213 10.9947 21.3325C10.8813 21.4357 10.7511 21.5188 10.6097 21.578C10.4694 21.6379 10.3188 21.6697 10.1663 21.6715C9.85745 21.6672 9.56158 21.5461 9.33801 21.3325C9.23179 21.2213 9.14853 21.0902 9.09301 20.9467C8.9682 20.6637 8.9682 20.3411 9.09301 20.0582C9.14853 19.9147 9.23179 19.7836 9.33801 19.6724C9.6735 19.3406 10.1752 19.2438 10.6097 19.4269C10.7511 19.4861 10.8813 19.5691 10.9947 19.6724C11.1009 19.7836 11.1841 19.9147 11.2397 20.0582C11.3645 20.3411 11.3645 20.6637 11.2397 20.9467ZM11.263 15.1012C11.2966 15.035 11.3202 14.9641 11.333 14.8908C11.3387 14.813 11.3387 14.7348 11.333 14.657C11.3287 14.3475 11.2079 14.051 10.9947 13.8269C10.8813 13.7237 10.7511 13.6406 10.6097 13.5814C10.1752 13.3984 9.6735 13.4952 9.33801 13.8269C9.22997 13.9367 9.14646 14.0682 9.09301 14.2127C9.03323 14.3533 9.00152 14.5042 8.99967 14.657C8.99788 14.9677 9.11962 15.2664 9.33801 15.487C9.56158 15.7007 9.85745 15.8218 10.1663 15.8261C10.3267 15.8274 10.4855 15.7955 10.633 15.7326C10.7744 15.6733 10.9046 15.5903 11.018 15.487L11.158 15.3117C11.2022 15.2465 11.2375 15.1757 11.263 15.1012ZM10.9947 9.64162C10.8813 9.74489 10.7511 9.82792 10.6097 9.88713C10.4712 9.95258 10.3194 9.98461 10.1663 9.98066C9.85745 9.97635 9.56158 9.85525 9.33801 9.64162C9.11962 9.42099 8.99788 9.12232 8.99967 8.81157C9.00152 8.6588 9.03323 8.50787 9.09301 8.36732C9.15209 8.22564 9.23495 8.09516 9.33801 7.98152C9.67349 7.6498 10.1752 7.55294 10.6097 7.73601C10.7511 7.79522 10.8813 7.87825 10.9947 7.98152C11.0977 8.09516 11.1806 8.22564 11.2397 8.36732C11.2995 8.50787 11.3312 8.6588 11.333 8.81157C11.3287 9.12111 11.2079 9.41758 10.9947 9.64162ZM14.833 21.6715H21.833C22.4773 21.6715 22.9997 21.1481 22.9997 20.5024C22.9997 19.8567 22.4773 19.3333 21.833 19.3333H14.833C14.1887 19.3333 13.6663 19.8567 13.6663 20.5024C13.6663 21.1481 14.1887 21.6715 14.833 21.6715ZM21.833 15.8261H14.833C14.1887 15.8261 13.6663 15.3027 13.6663 14.657C13.6663 14.0113 14.1887 13.4879 14.833 13.4879H21.833C22.4773 13.4879 22.9997 14.0113 22.9997 14.657C22.9997 15.3027 22.4773 15.8261 21.833 15.8261ZM14.833 9.98065H21.833C22.4773 9.98065 22.9997 9.45724 22.9997 8.81157C22.9997 8.1659 22.4773 7.64249 21.833 7.64249H14.833C14.1887 7.64249 13.6663 8.1659 13.6663 8.81157C13.6663 9.45724 14.1887 9.98065 14.833 9.98065Z" fill="white"/>
</g>
<defs>
<filter id="filter0_d_164_10961" x="-2" y="0.627977" width="36" height="36.058" filterUnits="userSpaceOnUse" color-interpolation-filters="sRGB">
<feFlood flood-opacity="0" result="BackgroundImageFix"/>
<feColorMatrix in="SourceAlpha" type="matrix" values="0 0 0 0 0 0 0 0 0 0 0 0 0 0 0 0 0 0 127 0" result="hardAlpha"/>
<feOffset dy="4"/>
<feGaussianBlur stdDeviation="2"/>
<feComposite in2="hardAlpha" operator="out"/>
<feColorMatrix type="matrix" values="0 0 0 0 0 0 0 0 0 0 0 0 0 0 0 0 0 0 0.25 0"/>
<feBlend mode="normal" in2="BackgroundImageFix" result="effect1_dropShadow_164_10961"/>
<feBlend mode="normal" in="SourceGraphic" in2="effect1_dropShadow_164_10961" result="shape"/>
</filter>
</defs>
</svg>
