<svg width="36" height="26" viewBox="0 0 36 26" fill="none" xmlns="http://www.w3.org/2000/svg">
<g filter="url(#filter0_d_164_11196)">
<path d="M9.84961 2.928C12.2746 1.387 14.9996 0.627998 17.9996 0.627998C20.9996 0.627998 23.7246 1.387 26.1496 2.928C28.5746 4.469 30.3246 6.493 31.3996 9C30.3496 11.507 28.5996 13.554 26.1496 15.072C23.7246 16.613 20.9996 17.372 17.9996 17.372C14.9996 17.372 12.2746 16.613 9.84961 15.072C7.42461 13.531 5.67461 11.507 4.59961 9C5.67461 6.493 7.42461 4.446 9.84961 2.928ZM13.6996 12.956C14.8996 14.06 16.3246 14.612 17.9996 14.612C19.6746 14.612 21.0996 14.06 22.2996 12.956C23.4996 11.852 24.0996 10.541 24.0996 9C24.0996 7.459 23.4996 6.148 22.2996 5.044C21.0996 3.94 19.6746 3.388 17.9996 3.388C16.3246 3.388 14.8996 3.94 13.6996 5.044C12.4996 6.148 11.8996 7.459 11.8996 9C11.8996 10.541 12.4996 11.852 13.6996 12.956ZM15.4246 6.631C16.1496 5.987 16.9996 5.642 17.9996 5.642C18.9746 5.642 19.8496 5.964 20.5746 6.631C21.2746 7.298 21.6496 8.08 21.6496 9C21.6496 9.92 21.2996 10.702 20.5746 11.369C19.8496 12.013 18.9746 12.358 17.9996 12.358C16.9996 12.358 16.1496 12.036 15.4246 11.369C14.7246 10.702 14.3496 9.92 14.3496 9C14.3496 8.08 14.7246 7.298 15.4246 6.631Z" fill="white"/>
</g>
<defs>
<filter id="filter0_d_164_11196" x="0.599609" y="0.627998" width="34.7998" height="24.744" filterUnits="userSpaceOnUse" color-interpolation-filters="sRGB">
<feFlood flood-opacity="0" result="BackgroundImageFix"/>
<feColorMatrix in="SourceAlpha" type="matrix" values="0 0 0 0 0 0 0 0 0 0 0 0 0 0 0 0 0 0 127 0" result="hardAlpha"/>
<feOffset dy="4"/>
<feGaussianBlur stdDeviation="2"/>
<feComposite in2="hardAlpha" operator="out"/>
<feColorMatrix type="matrix" values="0 0 0 0 0 0 0 0 0 0 0 0 0 0 0 0 0 0 0.25 0"/>
<feBlend mode="normal" in2="BackgroundImageFix" result="effect1_dropShadow_164_11196"/>
<feBlend mode="normal" in="SourceGraphic" in2="effect1_dropShadow_164_11196" result="shape"/>
</filter>
</defs>
</svg>
